<?xml version="1.0" standalone="no"?>
<!DOCTYPE svg PUBLIC "-//W3C//DTD SVG 20010904//EN"
 "http://www.w3.org/TR/2001/REC-SVG-20010904/DTD/svg10.dtd">
<svg version="1.0" xmlns="http://www.w3.org/2000/svg"
 width="640.000000pt" height="640.000000pt" viewBox="0 0 640.000000 640.000000"
 preserveAspectRatio="xMidYMid meet">
<metadata>
Created by potrace 1.11, written by Peter Selinger 2001-2013
</metadata>
<g transform="translate(0.000000,640.000000) scale(0.100000,-0.100000)"
fill="#000000" stroke="none">
<path d="M3361 6241 c-10 -10 -31 -19 -47 -19 -98 -4 -129 -11 -146 -32 -10
-12 -18 -28 -18 -36 0 -9 -11 -14 -30 -14 -36 0 -67 -39 -52 -66 11 -19 -31
-67 -61 -69 -24 -2 -38 -24 -34 -52 3 -15 -1 -23 -9 -23 -9 0 -14 11 -14 28 0
35 -9 48 -43 61 -29 11 -69 2 -82 -19 -6 -9 -9 -9 -15 0 -4 7 -22 13 -38 14
-23 1 -32 7 -37 23 -6 27 -39 46 -77 45 -25 -1 -28 3 -28 34 0 46 -29 74 -78
74 -26 0 -45 -7 -57 -20 -13 -14 -21 -17 -26 -9 -9 15 -69 19 -93 7 -14 -8
-22 -7 -30 4 -6 8 -25 20 -42 27 -56 22 -112 -8 -116 -62 -2 -22 -7 -27 -30
-27 -18 0 -33 -8 -44 -24 -8 -14 -25 -26 -37 -28 -12 -2 -28 -15 -35 -31 -17
-34 -32 -26 -32 17 0 19 -7 39 -15 46 -17 14 -87 16 -111 2 -9 -5 -36 -7 -59
-4 -35 3 -47 0 -65 -18 -12 -12 -20 -30 -17 -39 3 -14 -3 -17 -42 -17 -39 1
-46 -2 -49 -19 -2 -17 -9 -20 -41 -17 -31 3 -42 0 -55 -19 -9 -13 -16 -31 -16
-40 0 -9 -7 -20 -16 -23 -11 -4 -15 -15 -12 -35 3 -23 -1 -30 -24 -39 -15 -5
-28 -6 -28 -1 0 17 -57 38 -91 32 -40 -6 -86 -28 -91 -43 -2 -8 -11 -8 -31 -1
-47 18 -71 13 -90 -18 -9 -16 -15 -35 -12 -43 4 -11 -2 -13 -28 -10 -43 5 -73
-28 -55 -61 9 -17 8 -19 -8 -13 -22 9 -23 9 -46 7 -11 -1 -18 -9 -18 -21 0
-15 -7 -20 -28 -20 -32 0 -52 -16 -52 -43 0 -17 -1 -17 -29 2 -35 25 -83 27
-105 5 -20 -19 -20 -28 -2 -44 11 -9 13 -18 5 -37 -14 -37 -3 -59 39 -76 28
-11 32 -15 15 -16 -13 -1 -24 -10 -29 -23 -10 -33 26 -58 78 -52 40 4 41 3 21
-11 -12 -9 -41 -18 -65 -21 -89 -13 -128 -53 -85 -89 l23 -21 -56 4 c-68 5
-95 -14 -86 -60 3 -15 2 -28 -3 -28 -16 0 -20 -43 -5 -65 14 -21 13 -23 -7
-28 -18 -5 -21 -11 -16 -36 5 -23 3 -31 -8 -31 -16 0 -28 -31 -20 -52 8 -19
58 -48 85 -48 16 0 20 -4 15 -19 -7 -24 28 -51 67 -51 16 0 27 -3 27 -7 -4
-24 5 -33 40 -44 25 -7 43 -20 50 -36 10 -21 9 -24 -6 -19 -24 7 -50 -14 -58
-46 -7 -28 -19 -29 -84 -9 -18 6 -36 9 -40 9 -3 -1 -20 6 -38 15 -60 32 -133
13 -133 -34 0 -8 -13 -20 -30 -26 -16 -6 -30 -18 -30 -27 0 -10 -9 -16 -23
-16 -26 0 -62 -32 -50 -44 5 -4 -9 -5 -30 -1 -46 9 -64 -4 -73 -53 -6 -29 -3
-39 14 -52 14 -11 19 -24 16 -38 -3 -11 -1 -29 5 -41 10 -17 9 -21 -3 -21 -8
0 -18 5 -21 11 -4 5 -18 15 -32 20 -39 15 -73 -12 -73 -56 0 -29 -3 -34 -22
-33 -41 2 -49 -2 -57 -24 -6 -15 -4 -32 5 -50 8 -16 13 -28 12 -29 -2 0 -11
-2 -21 -4 -24 -4 -47 -24 -47 -40 0 -22 39 -48 76 -50 50 -3 61 -17 38 -49
-14 -19 -28 -25 -56 -26 -20 0 -44 -7 -53 -16 -18 -18 -16 -71 3 -83 8 -5 3
-14 -18 -29 -56 -42 -22 -110 50 -100 25 4 30 2 24 -11 -19 -44 9 -84 56 -79
15 2 31 -4 40 -15 10 -12 29 -19 52 -19 35 0 36 -1 27 -25 -5 -13 -9 -31 -9
-39 0 -17 57 -44 77 -37 7 3 13 -2 13 -10 0 -14 28 -30 54 -32 5 0 10 -8 12
-19 1 -10 7 -23 13 -29 13 -13 89 -18 96 -6 11 16 35 9 35 -10 0 -21 18 -31
58 -32 l27 -1 -30 -10 c-71 -25 -64 -47 15 -48 l45 -1 -36 -19 c-20 -11 -39
-27 -43 -36 -6 -14 0 -16 51 -10 46 4 52 3 31 -5 -31 -12 -44 -37 -22 -46 17
-6 99 2 129 13 17 7 16 3 -8 -25 -15 -18 -27 -36 -27 -41 0 -17 36 -19 103 -6
58 11 67 11 63 -1 -9 -22 39 -39 69 -25 35 16 37 15 30 -8 -10 -32 32 -46 80
-26 35 15 40 15 47 1 13 -22 64 -19 80 4 10 14 18 17 28 10 36 -22 143 2 156
36 8 19 24 20 24 0 0 -18 4 -18 49 -5 19 5 40 6 49 1 10 -6 1 -10 -28 -14 -38
-5 -59 -19 -60 -38 0 -10 50 -29 78 -29 23 -1 19 -5 -28 -28 -30 -15 -56 -32
-58 -39 -5 -19 45 -27 95 -16 l44 11 -31 -27 c-22 -18 -29 -31 -25 -44 10 -25
43 -29 103 -14 52 14 62 11 40 -11 -8 -8 -8 -15 1 -26 11 -14 19 -13 63 4 49
19 50 19 45 0 -8 -32 17 -43 84 -37 55 4 61 3 69 -17 11 -29 67 -86 85 -86 17
0 20 -16 5 -25 -15 -9 -12 -51 4 -64 7 -6 37 -17 66 -24 38 -8 57 -19 68 -37
76 -125 151 -200 265 -262 43 -24 92 -52 109 -63 25 -16 145 -164 246 -304 9
-12 31 -42 48 -65 60 -80 100 -142 136 -206 39 -71 104 -237 113 -290 3 -18 8
-37 11 -42 12 -20 15 -211 5 -292 -20 -149 -115 -390 -192 -487 -37 -47 -156
-126 -206 -138 l-38 -9 40 -3 c22 -1 52 -2 68 -2 15 0 27 -3 27 -8 0 -4 24 -6
53 -3 l52 4 -63 -41 c-35 -22 -70 -38 -78 -35 -9 3 -12 1 -9 -4 9 -15 83 -9
97 7 5 7 15 10 22 6 16 -11 30 -10 38 2 5 6 8 6 8 -2 0 -6 9 -9 20 -6 11 3 20
0 20 -6 0 -6 5 -11 11 -11 5 0 7 5 4 10 -6 9 29 15 62 11 6 -1 15 4 19 10 5 8
3 10 -7 4 -8 -4 -7 0 3 10 22 23 33 14 18 -15 -10 -19 -10 -20 9 -8 11 6 18
15 16 18 -2 4 2 7 10 7 8 0 11 -5 8 -10 -3 -5 0 -7 8 -5 8 3 30 -1 48 -9 19
-7 41 -11 48 -9 7 3 13 0 13 -7 0 -7 3 -8 8 -2 13 19 39 15 51 -7 7 -14 9 -15
6 -5 -3 10 1 25 9 33 17 16 36 19 36 4 0 -5 6 -10 13 -10 7 0 32 -9 55 -20 22
-11 45 -20 51 -20 16 0 25 22 23 57 -2 18 2 33 7 33 5 0 8 -8 7 -17 0 -10 4
-18 9 -18 6 0 21 -7 35 -15 14 -8 32 -15 40 -16 8 -2 16 -8 18 -14 2 -5 8 -8
13 -4 5 3 9 -2 9 -10 0 -9 6 -15 13 -13 6 1 11 -4 9 -11 -1 -8 2 -11 8 -7 8 5
7 12 -3 23 -8 10 -12 24 -10 32 13 42 11 41 40 27 16 -8 34 -12 41 -10 6 3 12
-1 12 -9 0 -10 2 -10 8 -1 5 8 19 9 45 4 20 -5 37 -6 38 -2 0 3 4 -3 9 -14 7
-17 9 -17 9 -2 1 20 2 20 35 7 14 -5 26 -6 26 -1 0 8 81 -2 120 -14 23 -7 27
10 5 19 -9 3 -12 12 -9 23 4 13 3 14 -3 5 -8 -10 -17 -9 -49 5 -21 9 -43 17
-48 17 -5 1 -11 7 -14 14 -2 8 4 11 20 8 12 -2 22 -8 21 -14 -1 -6 5 -9 15 -7
9 1 20 -3 24 -9 5 -8 10 -8 18 0 9 9 9 14 -1 19 -8 6 -10 4 -4 -6 7 -11 6 -12
-7 -2 -8 7 -18 10 -21 6 -4 -3 -7 -1 -7 6 0 7 10 10 26 7 14 -3 37 -1 50 4 14
6 23 6 20 1 -9 -13 19 -21 35 -9 11 8 10 9 -4 4 -10 -3 -15 -2 -12 3 3 5 18 8
33 6 15 -2 31 -4 35 -4 5 -1 5 -7 2 -13 -4 -7 0 -5 8 4 13 16 15 16 32 0 10
-9 15 -11 11 -4 -4 7 -2 12 6 13 7 1 20 2 28 3 8 1 22 -3 30 -9 13 -9 13 -8 1
7 -7 10 -17 15 -22 12 -5 -3 -16 2 -25 10 -8 9 -20 16 -27 16 -6 0 -2 -7 9
-15 18 -14 18 -14 -3 -8 -13 3 -23 8 -23 12 0 4 -9 7 -20 8 -11 1 -27 9 -36
17 -19 20 -31 21 -15 2 10 -12 9 -13 -8 -9 -13 3 -18 10 -13 21 5 14 3 15 -10
4 -13 -10 -18 -8 -32 13 -13 19 -22 24 -38 19 -15 -4 -18 -3 -13 6 5 8 4 11
-2 7 -6 -4 -35 7 -65 23 -48 26 -59 38 -81 88 -27 60 -68 214 -86 322 -41 249
-32 593 19 765 47 154 71 218 125 330 128 264 311 488 600 735 126 107 195
152 289 186 187 66 271 117 365 220 47 51 53 55 58 35 3 -11 9 -21 13 -21 4 0
12 -11 18 -24 6 -14 19 -25 29 -26 10 -1 36 -2 59 -3 29 -1 41 -6 40 -17 -1
-8 4 -14 11 -13 7 2 17 -6 22 -16 13 -24 63 -42 82 -30 8 5 10 9 4 9 -12 1 25
30 37 30 5 0 13 -12 18 -26 6 -14 14 -23 19 -19 5 3 22 0 36 -7 24 -11 29 -10
44 9 13 15 22 18 34 11 10 -5 22 -6 28 -3 5 4 16 1 24 -5 21 -17 60 -9 59 13
-1 9 3 17 8 17 6 0 8 6 5 14 -4 9 3 14 21 14 29 -1 53 26 45 50 -4 10 -2 13 5
8 7 -4 12 -1 12 9 0 13 6 16 24 11 14 -3 28 -2 31 4 3 5 16 10 29 10 29 0 39
10 25 27 -9 10 -7 13 10 13 21 0 31 6 70 41 13 11 22 13 34 5 12 -8 22 -7 37
2 11 6 30 12 44 12 13 0 29 6 36 14 6 8 25 16 42 18 18 2 36 11 42 23 6 10 17
25 24 33 6 7 12 22 12 33 0 11 7 19 17 19 28 0 54 30 43 51 -7 12 -6 26 2 44
14 31 -5 56 -47 60 -15 2 -34 10 -43 18 -12 11 -33 14 -70 11 -53 -4 -53 -4
-38 17 8 12 12 28 9 35 -4 10 3 14 21 14 25 0 47 25 39 46 -2 6 6 14 18 17 16
4 20 11 17 25 -4 14 1 23 18 31 27 12 31 42 9 64 -8 8 -11 18 -8 21 14 14 10
37 -8 49 -10 6 -19 19 -19 29 0 28 -29 48 -69 48 -20 0 -42 5 -49 12 -9 9 -18
9 -37 0 -30 -14 -140 -15 -170 -2 -18 8 -17 9 7 9 84 2 121 73 46 88 l-29 6
30 15 c34 16 40 45 17 78 -8 10 -12 30 -9 45 4 19 -1 27 -19 36 -34 15 -68 6
-94 -25 -25 -28 -31 -24 -14 7 6 13 5 24 -5 37 -8 11 -15 35 -15 55 0 20 -7
42 -15 49 -11 9 -13 16 -5 24 30 30 -1 94 -53 106 -15 4 -22 14 -24 34 -3 39
-20 55 -63 62 -36 6 -38 9 -42 45 -2 21 2 45 8 54 17 23 6 53 -26 72 -16 9
-26 22 -23 29 8 22 -16 53 -44 56 -22 2 -29 9 -33 32 -8 44 -47 67 -117 71
-48 2 -64 7 -85 28 -22 22 -33 25 -68 22 -32 -3 -49 0 -68 15 -15 12 -41 20
-66 21 -37 0 -39 1 -18 11 12 6 22 15 22 20 0 21 -35 68 -47 64 -22 -9 -14 9
9 19 12 6 23 15 26 22 4 13 -72 56 -82 46 -3 -4 -6 1 -6 10 0 8 -3 22 -6 30
-3 10 3 17 20 21 29 7 42 41 32 80 -5 19 1 32 20 51 21 21 25 32 20 58 -8 42
-42 75 -82 83 -18 3 -33 9 -32 13 8 32 -40 71 -78 63 -7 -1 -15 17 -18 42 -8
53 -25 70 -69 68 -25 -1 -35 4 -42 21 -14 30 -64 47 -78 26 -9 -14 -13 -14
-44 2 -38 19 -69 15 -86 -12 -7 -11 -21 -19 -33 -19 -19 0 -21 4 -17 43 4 31
0 48 -13 65 -21 25 -23 25 -137 19 -94 -6 -122 -24 -114 -74 5 -30 4 -31 -25
-29 -22 2 -35 10 -45 29 -26 51 -104 49 -122 -5 -6 -17 -14 -28 -18 -24 -10
10 -13 39 -4 51 4 5 8 33 9 62 3 44 0 53 -19 63 -12 7 -34 9 -50 6 -20 -4 -27
-2 -23 8 3 7 0 24 -5 38 -12 32 -69 46 -109 26 -21 -11 -32 -11 -51 -2 -27 14
-72 9 -83 -9 -5 -8 -9 -6 -13 5 -4 10 -4 22 0 27 3 6 -1 24 -10 40 -17 34 -66
53 -101 40 -15 -5 -26 -2 -37 12 -19 21 -67 25 -99 8 -16 -9 -23 -7 -35 10
-18 27 -76 28 -102 2z m1455 -2906 l23 -24 -36 -48 c-33 -45 -153 -138 -247
-191 -37 -21 -205 -82 -226 -82 -17 0 45 119 68 129 12 6 22 17 22 26 0 11 8
14 34 9 26 -4 37 -1 44 12 6 10 16 15 26 11 22 -9 65 9 73 30 4 10 12 22 20
26 7 4 13 17 13 28 0 11 5 17 10 14 15 -9 42 15 36 31 -4 10 2 12 24 8 22 -5
34 -1 52 19 30 32 36 32 64 2z m131 -62 c-9 -9 -20 -13 -24 -9 -4 4 1 14 11
22 25 18 35 8 13 -13z m65 -52 c-3 -16 -18 -29 -49 -43 -25 -11 -46 -18 -48
-16 -2 2 -1 21 2 43 l5 41 47 -1 c44 0 47 -1 43 -24z m-762 -116 c0 -9 -81
-157 -103 -189 -48 -69 -124 -156 -224 -259 l-105 -108 5 38 c3 21 9 71 13
110 5 58 10 74 25 78 30 10 43 42 22 54 -14 9 -12 10 12 6 36 -7 78 13 83 38
2 10 -4 27 -14 38 -22 25 -16 30 27 20 45 -10 77 2 85 33 4 17 15 27 34 31 31
7 70 36 70 52 0 6 -10 18 -22 26 l-23 16 30 1 c17 0 37 5 45 10 16 10 40 13
40 5z m-570 -337 c0 -3 -18 -82 -40 -175 -66 -273 -95 -398 -115 -488 -2 -11
-22 -102 -44 -203 -23 -100 -41 -190 -41 -200 0 -26 -15 -43 -31 -37 -21 8
-67 86 -161 276 -71 143 -89 172 -144 225 l-62 60 17 30 c39 65 179 322 199
367 17 35 28 47 45 47 12 0 40 9 62 19 29 13 48 16 64 9 33 -12 119 -2 148 18
17 11 24 23 21 37 -4 20 0 22 39 22 24 0 43 -3 43 -7z m-935 -110 c-10 -46 20
-61 83 -42 41 12 44 11 51 -9 5 -12 13 -33 19 -47 7 -20 3 -38 -26 -96 l-35
-71 -46 19 c-65 27 -262 126 -286 144 -19 14 -19 16 18 49 21 19 43 35 50 36
56 3 98 10 132 23 22 8 41 15 43 15 1 1 0 -9 -3 -21z m1270 -2178 c3 -5 2 -10
-4 -10 -5 0 -13 5 -16 10 -3 6 -2 10 4 10 5 0 13 -4 16 -10z m-725 -132 c0
-13 -25 2 -38 23 -13 21 -13 21 12 3 14 -11 26 -22 26 -26z m-46 13 c4 -5 -3
-7 -14 -4 -23 6 -26 13 -6 13 8 0 17 -4 20 -9z m379 -4 c7 4 6 0 -1 -10 -8 -9
-11 -21 -7 -27 3 -5 4 -10 1 -10 -11 0 -27 41 -20 52 6 9 9 9 12 0 2 -7 9 -9
15 -5z"/>
<path d="M4085 480 c-3 -6 1 -7 9 -4 18 7 21 14 7 14 -6 0 -13 -4 -16 -10z"/>
<path d="M2746 382 c-3 -5 1 -9 9 -9 8 0 15 4 15 9 0 4 -4 8 -9 8 -6 0 -12 -4
-15 -8z"/>
<path d="M4021 372 c9 -4 15 -15 13 -25 -1 -9 1 -15 6 -12 15 9 3 40 -16 42
-15 2 -16 1 -3 -5z"/>
<path d="M2675 361 c-3 -5 -2 -12 3 -15 5 -3 9 1 9 9 0 17 -3 19 -12 6z"/>
<path d="M3307 326 c-4 -10 -3 -15 3 -11 6 3 10 1 10 -6 0 -7 3 -10 6 -6 3 3
2 13 -4 22 -8 16 -9 16 -15 1z"/>
<path d="M3486 329 c3 -5 9 -7 14 -4 4 3 11 0 13 -5 3 -6 4 -5 3 1 -1 7 -10
13 -19 15 -9 1 -15 -2 -11 -7z"/>
<path d="M3647 319 c4 -13 8 -18 11 -10 2 7 -1 18 -6 23 -8 8 -9 4 -5 -13z"/>
<path d="M2853 311 c0 -11 5 -18 9 -15 4 3 5 11 1 19 -7 21 -12 19 -10 -4z"/>
<path d="M3130 320 c0 -5 5 -10 10 -10 6 0 10 5 10 10 0 6 -4 10 -10 10 -5 0
-10 -4 -10 -10z"/>
<path d="M3068 303 c7 -3 16 -2 19 1 4 3 -2 6 -13 5 -11 0 -14 -3 -6 -6z"/>
<path d="M3155 301 c-3 -5 -2 -12 3 -15 5 -3 9 1 9 9 0 17 -3 19 -12 6z"/>
<path d="M3184 290 c0 -9 6 -17 12 -17 7 0 10 7 6 15 -4 11 -1 13 9 7 8 -5 11
-4 6 0 -14 16 -33 13 -33 -5z"/>
<path d="M3255 301 c6 -11 4 -13 -8 -8 -23 9 -21 0 2 -13 15 -7 19 -7 17 5 -1
8 -6 18 -11 22 -4 5 -5 2 0 -6z"/>
<path d="M3670 301 c0 -6 4 -13 10 -16 6 -3 7 1 4 9 -7 18 -14 21 -14 7z"/>
<path d="M3787 299 c7 -7 15 -10 18 -7 3 3 -2 9 -12 12 -14 6 -15 5 -6 -5z"/>
<path d="M4050 299 c0 -5 5 -7 10 -4 6 3 10 8 10 11 0 2 -4 4 -10 4 -5 0 -10
-5 -10 -11z"/>
<path d="M3402 284 c10 -10 20 -16 22 -13 3 3 -5 11 -17 18 -21 13 -21 12 -5
-5z"/>
<path d="M3516 287 c3 -10 9 -15 12 -12 3 3 0 11 -7 18 -10 9 -11 8 -5 -6z"/>
<path d="M3558 293 c7 -3 16 -2 19 1 4 3 -2 6 -13 5 -11 0 -14 -3 -6 -6z"/>
<path d="M3724 278 c-12 -14 -13 -18 -3 -10 9 6 18 10 21 7 2 -3 5 2 5 10 0
19 0 19 -23 -7z"/>
<path d="M3076 282 c-3 -5 1 -9 9 -9 8 0 12 4 9 9 -3 4 -7 8 -9 8 -2 0 -6 -4
-9 -8z"/>
<path d="M3296 282 c-3 -5 1 -9 9 -9 8 0 12 4 9 9 -3 4 -7 8 -9 8 -2 0 -6 -4
-9 -8z"/>
<path d="M3350 278 c0 -4 4 -8 9 -8 6 0 12 4 15 8 3 5 -1 9 -9 9 -8 0 -15 -4
-15 -9z"/>
<path d="M3470 280 c0 -5 9 -8 20 -7 21 1 18 10 -5 13 -8 1 -15 -2 -15 -6z"/>
<path d="M3550 258 c0 -4 4 -8 9 -8 6 0 12 4 15 8 3 5 -1 9 -9 9 -8 0 -15 -4
-15 -9z"/>
<path d="M3450 256 c0 -2 8 -10 18 -17 15 -13 16 -12 3 4 -13 16 -21 21 -21
13z"/>
<path d="M3335 240 c3 -5 8 -10 11 -10 2 0 4 5 4 10 0 6 -5 10 -11 10 -5 0 -7
-4 -4 -10z"/>
<path d="M3386 238 c3 -5 10 -6 15 -3 13 9 11 12 -6 12 -8 0 -12 -4 -9 -9z"/>
<path d="M3413 215 c0 -8 4 -12 9 -9 5 3 6 10 3 15 -9 13 -12 11 -12 -6z"/>
</g>
</svg>
