<svg height="512" viewBox="0 0 64 64" width="512" xmlns="http://www.w3.org/2000/svg"><path d="M26 26s-8-3-8-10 8-14 8-14 8 7 8 14-8 10-8 10zM54 26s-8-3-8-10 8-14 8-14 8 7 8 14-8 10-8 10z" fill="#b4dd7f"/><path d="M8 46h19v16H8z" fill="#d3a06c"/><path d="M56 46c3.48 0 6 3.36 6 8s-2.52 8-6 8H20c3.48 0 6-3.36 6-8s-2.52-8-6-8zM56 30c3.48 0 6 3.36 6 8s-2.52 8-6 8H12c3.48 0 6-3.36 6-8s-2.52-8-6-8h42z" fill="#d3a06c"/><path d="M12 30c3.48 0 6 3.36 6 8s-2.52 8-6 8-6-3.36-6-8 2.52-8 6-8zM20 46c3.48 0 6 3.36 6 8s-2.52 8-6 8-6-3.36-6-8 2.52-8 6-8zM8 46c3.48 0 6 3.36 6 8s-2.52 8-6 8-6-3.36-6-8 2.52-8 6-8z" fill="#cf9e76"/><ellipse cx="20" cy="54" fill="#dfb28b" rx="2" ry="4"/><ellipse cx="8" cy="54" fill="#dfb28b" rx="2" ry="4"/><ellipse cx="12" cy="38" fill="#dfb28b" rx="2" ry="4"/><g><path d="M9 54h2c0-2.851-1.29-5-3-5v2c.249 0 1 1.064 1 3zM8 57c-.249 0-1-1.064-1-3 0-.61.079-1.206.229-1.723l-1.922-.555A8.321 8.321 0 005 54c0 2.851 1.29 5 3 5 1.193 0 2.2-1.018 2.693-2.722l-1.921-.556C8.495 56.681 8.085 57 8 57zM19 54c0-1.936.751-3 1-3v-2c-1.71 0-3 2.149-3 5zM19.228 55.722l-1.921.556C17.8 57.982 18.807 59 20 59c1.71 0 3-2.149 3-5 0-.795-.106-1.583-.307-2.277l-1.922.555c.15.516.229 1.112.229 1.722 0 1.936-.751 3-1 3-.085 0-.495-.319-.772-1.278zM12 43v-2c-.249 0-1-1.064-1-3H9c0 2.851 1.29 5 3 5zM12 35c.249 0 1 1.064 1 3 0 .61-.079 1.206-.229 1.723l1.922.555A8.321 8.321 0 0015 38c0-2.851-1.29-5-3-5-1.193 0-2.2 1.018-2.693 2.722l1.921.556c.277-.959.687-1.278.772-1.278z"/><path d="M63 38c0-5.215-2.944-9-7-9h-1v-2.341c2.009-.916 8-4.188 8-10.659 0-7.369-8.001-14.455-8.341-14.752L54 .671l-.659.576C53.001 1.545 45 8.631 45 16c0 6.471 5.991 9.743 8 10.659V29H27v-2.341c2.009-.916 8-4.188 8-10.659 0-7.369-8.001-14.455-8.341-14.752L26 .671l-.659.576C25.001 1.545 17 8.631 17 16c0 6.471 5.991 9.743 8 10.659V29H12c-4.056 0-7 3.785-7 9 0 2.938.935 5.422 2.476 7.031C3.694 45.344 1 49.014 1 54c0 5.215 2.944 9 7 9 .093 0 .182-.012.273-.016V63H56c4.056 0 7-3.785 7-9 0-3.618-1.419-6.545-3.642-8C61.581 44.545 63 41.618 63 38zM47 16c0-5.319 5.143-10.816 7-12.628 1.857 1.812 7 7.31 7 12.628 0 4.537-3.878 7.261-6 8.414v-2.112l3.832-5.748-1.664-1.109L55 18.697V12.72l2.316-.772-.633-1.897L53 11.279v3.87l-2.219-2.774-1.562 1.249L53 18.35v6.064c-2.122-1.153-6-3.877-6-8.414zm-28 0c0-5.319 5.143-10.816 7-12.628 1.857 1.812 7 7.31 7 12.628 0 4.537-3.878 7.261-6 8.414V18.35l3.781-4.726-1.562-1.249L27 15.15v-3.87l-3.684-1.228-.633 1.897 2.317.772v5.977l-2.168-3.252-1.664 1.109L25 22.303v2.112c-2.122-1.154-6-3.878-6-8.415zM7 38c0-4.056 2.103-7 5-7s5 2.944 5 7-2.103 7-5 7-5-2.944-5-7zm18 16c0 4.056-2.103 7-5 7s-5-2.944-5-7 2.103-7 5-7 5 2.944 5 7zm-9.552 7h-2.896A8.157 8.157 0 0014 58.821c.387.833.872 1.57 1.448 2.179zM14 49.179A8.157 8.157 0 0012.552 47h2.896A8.157 8.157 0 0014 49.179zM3 54c0-4.056 2.103-7 5-7s5 2.944 5 7-2.103 7-5 7-5-2.944-5-7zm58 0c0 4.056-2.103 7-5 7H24.552C26.076 59.39 27 56.92 27 54s-.924-5.39-2.448-7H56c2.897 0 5 2.944 5 7zm-41-9h-3.448C18.076 43.39 19 40.92 19 38s-.924-5.39-2.448-7H56c2.897 0 5 2.944 5 7s-2.103 7-5 7z"/><path d="M44 52c0 .551-.449 1-1 1h-3v2h3c1.654 0 3-1.346 3-3s-1.346-3-3-3H29v2h14c.551 0 1 .449 1 1zM56 56c0 .551-.449 1-1 1H45v2h10c1.654 0 3-1.346 3-3s-1.346-3-3-3h-3v2h3c.551 0 1 .449 1 1zM29 57h6v2h-6zM21 33h4v2h-4zM36 37h-1v2h1c.551 0 1 .449 1 1s-.449 1-1 1H25v2h11c1.654 0 3-1.346 3-3s-1.346-3-3-3zM56 33H45v2h11c.551 0 1 .449 1 1s-.449 1-1 1h-1v2h1c1.654 0 3-1.346 3-3s-1.346-3-3-3zM41 41h6v2h-6zM25 37h4v2h-4zM33 33h2v2h-2zM37 33h2v2h-2zM48 49h2v2h-2zM52 49h2v2h-2z"/><path d="M47 37h4v2h-4z"/></g></svg>